<svg xmlns="http://www.w3.org/2000/svg" width="81.471" height="47.792" viewBox="0 0 81.471 47.792">
  <g id="Group_641" data-name="Group 641" transform="translate(-353.956 -105.422)">
    <g id="Group_638" data-name="Group 638" transform="translate(387.633 105.422)">
      <g id="Group_637" data-name="Group 637">
        <path id="Path_76" data-name="Path 76" d="M418.8,127.776a1.5,1.5,0,0,0-1.234-1.471l-3.406-.62a19.63,19.63,0,0,0-.782-2.9l2.634-2.27a1.5,1.5,0,0,0,.318-1.893l-1.5-2.576a1.5,1.5,0,0,0-1.8-.657l-3.263,1.167a19.619,19.619,0,0,0-2.128-2.12l1.149-3.289a1.5,1.5,0,0,0-.673-1.8l-2.586-1.481a1.5,1.5,0,0,0-1.891.332l-2.239,2.64a19.349,19.349,0,0,0-2.908-.772l-.65-3.419a1.5,1.5,0,0,0-1.475-1.22h-.006l-2.981.012a1.5,1.5,0,0,0-1.471,1.232l-.62,3.407a19.4,19.4,0,0,0-2.9.782l-2.272-2.636a1.5,1.5,0,0,0-1.893-.316l-2.574,1.5a1.5,1.5,0,0,0-.659,1.8l1.169,3.263a20,20,0,0,0-2.122,2.128l-3.289-1.147a1.5,1.5,0,0,0-1.8.671l-1.481,2.588a1.5,1.5,0,0,0,.332,1.889l2.64,2.239a19.661,19.661,0,0,0-.774,2.908l-3.417.65a1.5,1.5,0,0,0-1.222,1.483l.014,2.981a1.5,1.5,0,0,0,1.232,1.471l3.406.618a19.36,19.36,0,0,0,.784,2.906l-2.636,2.27a1.5,1.5,0,0,0-.318,1.893l1.5,2.576a1.5,1.5,0,0,0,1.8.657l3.263-1.167a19.8,19.8,0,0,0,2.128,2.12l-1.147,3.289a1.5,1.5,0,0,0,.671,1.8l2.588,1.481a1.5,1.5,0,0,0,1.889-.332l2.239-2.64a19.415,19.415,0,0,0,2.908.772l.65,3.419a1.5,1.5,0,0,0,1.475,1.22h.006l2.981-.012a1.5,1.5,0,0,0,1.473-1.232l.618-3.407a19.486,19.486,0,0,0,2.906-.782l2.27,2.636a1.5,1.5,0,0,0,1.893.316l2.576-1.5a1.5,1.5,0,0,0,.657-1.8l-1.169-3.263a19.62,19.62,0,0,0,2.12-2.128l3.289,1.147a1.5,1.5,0,0,0,1.8-.671l1.479-2.588a1.5,1.5,0,0,0-.332-1.889l-2.64-2.239a19.479,19.479,0,0,0,.774-2.908l3.417-.65a1.5,1.5,0,0,0,1.222-1.483Zm-23.884,18.376a16.834,16.834,0,1,1,16.834-16.834A16.834,16.834,0,0,1,394.912,146.152Z" transform="translate(-371.014 -105.422)" fill="#f4b919"/>
      </g>
    </g>
    <path id="Path_77" data-name="Path 77" d="M357.346,124.617v3.352a2.527,2.527,0,0,0,2.527,2.527h6.878a2.527,2.527,0,0,0,2.527-2.527v-2.375c-3.328-.091-6.655-.213-9.96-.369A4.121,4.121,0,0,1,357.346,124.617Z" transform="translate(3.303 18.7)" fill="#f4b919"/>
    <g id="Group_639" data-name="Group 639" transform="translate(353.956 109.44)">
      <path id="Path_78" data-name="Path 78" d="M389.23,140.095H378.352a.986.986,0,0,1-.985-.987v-1.094a.986.986,0,0,1,.985-.987h9.77a3.294,3.294,0,0,1,1.135-2.247l1.733-1.492c-.075-.255-.142-.509-.207-.764l-2.227-.4a3.305,3.305,0,0,1-2.711-3.236l-.012-2.981a3.3,3.3,0,0,1,2.685-3.255l2.247-.428c.063-.255.13-.509.2-.764l-1.727-1.463a3.38,3.38,0,0,1-.523-.569q-1.715-.03-3.463-.032a177.406,177.406,0,0,0-19.347,1.007c.689-1.339,3.153-6.039,3.153-6.039a5.315,5.315,0,0,1,3.706-2.8,68.327,68.327,0,0,1,12.988-1.315l.334,0a68.435,68.435,0,0,1,10.238.776l-.426-1.188a3.305,3.305,0,0,1-.138-1.712,71.049,71.049,0,0,0-9.674-.663h-.347a70.9,70.9,0,0,0-13.521,1.37,8.136,8.136,0,0,0-5.64,4.256q-1.869,3.634-3.735,7.265a4.071,4.071,0,0,0-2.94-1.668l-2.949-.261a2.757,2.757,0,0,0-.486,5.492l4.438.393a15.786,15.786,0,0,0-1.084,5.749v7.733a3,3,0,0,0,2.853,2.995c7.429.351,15.184.551,23.239.555h.172q1.94,0,3.858-.016Zm-14.913-7.69,0,.012a1.4,1.4,0,0,1-1.044,1.062l-.067.016a16.8,16.8,0,0,1-3.51.288,16.541,16.541,0,0,1-1.8-.142,7.358,7.358,0,0,1-3.107-1.171,2.018,2.018,0,0,1-.894-1.674l0-2.18a1,1,0,0,1,.766-.971.745.745,0,0,1,.132-.024l1.751-.18a3.255,3.255,0,0,1,1.929.4c.336.188.723.4,1.147.638,1.224.669,1.71.912,2.612,1.425.411.235.971.563,1.635.973a1.117,1.117,0,0,1,.525,1.019A3.368,3.368,0,0,1,374.316,132.405Z" transform="translate(-353.956 -107.457)" fill="#f4b919"/>
    </g>
    <g id="Group_640" data-name="Group 640" transform="translate(402.2 116.78)">
      <path id="Path_79" data-name="Path 79" d="M399.45,123.755c-.158-.028.389-.008-1.842-.211a4.857,4.857,0,0,1-3.334-1.22c-.91-1.8-2.651-3.382-4.906-5.433a4.763,4.763,0,0,1-1.524-1.933c-.559-1.514.194-2.624-.521-3.348a2.011,2.011,0,0,0-2.008-.3c-1.37.5-1.921,2.489-1.862,3.942a8.9,8.9,0,0,0,1.526,4.428s-4.687-.671-5.952,1.9c-.3.6.336,2.193.336,2.193a3.952,3.952,0,0,0-.967,1.787,4.409,4.409,0,0,0,1,2.193,3.538,3.538,0,0,0-.261,2.01,4.685,4.685,0,0,0,1.339,1.526,6.246,6.246,0,0,0,.037,1.263c.249,1.289,2.162,1.935,2.492,2.047.744.251,1.921.158,4.241-.038,3.447-.29,4.168-.642,4.466-.857a2.572,2.572,0,0,1,1.368-.377h0a8.8,8.8,0,0,0,5.289-.069C399.227,132.925,401.166,124.041,399.45,123.755Z" transform="translate(-378.393 -111.175)" fill="#f4b919"/>
    </g>
  </g>
</svg>
