<svg xmlns="http://www.w3.org/2000/svg" width="37.088" height="62.782" viewBox="0 0 37.088 62.782">
  <g id="Group_636" data-name="Group 636" transform="translate(-364.906 -287.084)">
    <path id="Path_69" data-name="Path 69" d="M366.753,308.4a2.3,2.3,0,0,0,1.777,1.549l7.848,1.406a2.289,2.289,0,0,0,2.2-.841l.172-.218a2.293,2.293,0,0,0-1.145-3.614l-8.078-2.413a2.293,2.293,0,0,0-2.6.979,3.2,3.2,0,0,0-.331,2.685Z" transform="translate(1.408 15.64)" fill="#f4b919"/>
    <path id="Path_70" data-name="Path 70" d="M368.783,307.722a1.825,1.825,0,0,0-2.1,1.182,3.641,3.641,0,0,0,.283,3.03l.061.107a1.832,1.832,0,0,0,1.542.912l6.745.146a1.826,1.826,0,0,0,1.348-.55l.243-.249a1.827,1.827,0,0,0-.933-3.064Z" transform="translate(1.439 18.85)" fill="#f4b919"/>
    <path id="Path_71" data-name="Path 71" d="M369.931,303.418l3.9,1.272a21.347,21.347,0,0,1,.8-2.31l1.425-3.181-4.594-1.777a2.192,2.192,0,0,0-2.358.483l-.333.4a3.874,3.874,0,0,0-.546.766,3.018,3.018,0,0,0,1.7,4.345Z" transform="translate(2.689 9.317)" fill="#f4b919"/>
    <path id="Path_72" data-name="Path 72" d="M368.609,306.606l7.592,2.365c-.477-.251-.877-1.438-1.055-1.959a9.936,9.936,0,0,1-.174-4.979l-4.476-1.314a3.049,3.049,0,0,0-3.21.9l-.059.069a3.049,3.049,0,0,0,1.383,4.914Z" transform="translate(1.434 12.35)" fill="#f4b919"/>
    <path id="Path_73" data-name="Path 73" d="M373.026,301.97l-1.044,4.824,3.2,1.237a3.228,3.228,0,0,1,4.058-1.166l.734-3.392a6.758,6.758,0,0,0,6.487-5.5,11.394,11.394,0,0,0-1.951-8.789l-1.331,6.153a1.649,1.649,0,0,1-1.113,1.226l-3.637,1.168a1.654,1.654,0,0,1-1.62-.351l-2.831-2.566a1.655,1.655,0,0,1-.506-1.578l1.331-6.153a11.39,11.39,0,0,0-5.408,7.2A6.756,6.756,0,0,0,373.026,301.97Z" transform="translate(3.936 0)" fill="#f4b919"/>
    <path id="Path_74" data-name="Path 74" d="M376.381,316.421l1.253-5.525-3.428.079-3.9-.042-.875,3.987a6.78,6.78,0,0,0,.82,13.021c3.66.791,7.383-2.009,8.174-5.669A5.993,5.993,0,0,0,376.381,316.421Zm-.709,6.529-1.969,2.172a1.51,1.51,0,0,1-1.44.462l-2.865-.619a1.512,1.512,0,0,1-1.12-1.017l-.9-2.79a1.516,1.516,0,0,1,.32-1.478l1.969-2.172a1.514,1.514,0,0,1,1.442-.462l2.863.619a1.518,1.518,0,0,1,1.122,1.017l.894,2.79A1.507,1.507,0,0,1,375.673,322.95Z" transform="translate(0 21.791)" fill="#f4b919"/>
    <path id="Path_75" data-name="Path 75" d="M395.377,324.739a16.965,16.965,0,0,1-6.826-9.823l-1.184-4.692a16.964,16.964,0,0,0-6.559-9.637l-3.156-2.461a2.666,2.666,0,0,0-3.5.2,2.779,2.779,0,0,0-.622.942l-1.272,3.112a11.067,11.067,0,0,0-.624,7.285,1.539,1.539,0,0,0,2.329.77l1.5-1.03a3.731,3.731,0,0,0,1.218-1.622l1.247-3.748a4.545,4.545,0,0,1,.239-.527,4.926,4.926,0,0,1,.289-.475,6.337,6.337,0,0,1,1.032-.893,6.246,6.246,0,0,1,.781-.458,4.179,4.179,0,0,0-1.5,2.739,13.233,13.233,0,0,1-.825,3.175c.634-.121,1.078-.377,1.785-.462a6.108,6.108,0,0,1,3.148.653,6.458,6.458,0,0,0-2-.2,6.672,6.672,0,0,0-2.62.712,6.4,6.4,0,0,0-.981.615,6.5,6.5,0,0,1-2.668,2.505c-.651.318-1.5.619-1.5.619a22.283,22.283,0,0,1,2.344,1.612,3.158,3.158,0,0,1-.4,3.244l-.174.218A3.15,3.15,0,0,1,373,318.252a2.741,2.741,0,0,1,.419.46,2.7,2.7,0,0,1-.262,3.457l-.243.249a2.829,2.829,0,0,1-.28.249l-1.113,4.9,2.637,2.241a5.877,5.877,0,0,0,2.748,1.331,6.091,6.091,0,0,1,3.838,2.415l2.4,3.309a14.761,14.761,0,0,0,9.815-6.554l3.225-5.02Z" transform="translate(5.811 9.59)" fill="#f4b919"/>
  </g>
</svg>
