<svg xmlns="http://www.w3.org/2000/svg" width="62" height="49.455" viewBox="0 0 62 49.455">
  <g id="Group_645" data-name="Group 645" transform="translate(-288.391 -714.862)">
    <g id="Group_642" data-name="Group 642" transform="translate(288.391 750.112)">
      <path id="Path_80" data-name="Path 80" d="M294.162,740.972l-1.866,6.08h50.727L341,740.972Z" transform="translate(-286.661 -738.546)" fill="#f4b919"/>
      <path id="Path_81" data-name="Path 81" d="M350.286,751.592,345.56,740.14a1.369,1.369,0,0,0-1.271-.849H294.336a1.368,1.368,0,0,0-1.277.864l-4.57,11.453a1.377,1.377,0,0,0,1.277,1.887h59.248a1.376,1.376,0,0,0,1.271-1.9Zm-23.826-.284a1.176,1.176,0,0,1-.86.346H313.173a1.185,1.185,0,0,1-.851-.332.763.763,0,0,1-.208-.75l.216-.759a1.042,1.042,0,0,1,1.061-.672h11.962a1.054,1.054,0,0,1,1.052.646l.247.759A.748.748,0,0,1,326.46,751.308ZM345.32,748a.731.731,0,0,1-.586.32H294.052a.727.727,0,0,1-.581-.31.743.743,0,0,1-.094-.659l2.012-5.838a.7.7,0,0,1,.675-.47h46.5a.7.7,0,0,1,.668.455l2.173,5.846A.717.717,0,0,1,345.32,748Z" transform="translate(-288.391 -739.291)" fill="#f4b919"/>
    </g>
    <path id="Path_82" data-name="Path 82" d="M341.589,714.862H294.151a2.414,2.414,0,0,0-2.411,2.411v28.849a2.414,2.414,0,0,0,2.411,2.411h47.437A2.414,2.414,0,0,0,344,746.122V717.273A2.414,2.414,0,0,0,341.589,714.862Zm-23.675.945a.745.745,0,1,1-.746.745A.744.744,0,0,1,317.914,715.807Zm23.1,27.84a1.556,1.556,0,0,1-1.554,1.554H296.187a1.556,1.556,0,0,1-1.554-1.554V719.661a1.556,1.556,0,0,1,1.554-1.554h43.277a1.556,1.556,0,0,1,1.554,1.554Z" transform="translate(1.484)" fill="#f4b919"/>
    <g id="Group_643" data-name="Group 643" transform="translate(300.065 720.931)">
      <path id="Path_83" data-name="Path 83" d="M334.969,727.993l-.727,0a4.1,4.1,0,0,1,.307-.365l.365-.39a1.522,1.522,0,0,0,.03-1.5,3.887,3.887,0,0,1-.32-.8.475.475,0,0,0,.064.006.221.221,0,0,0,.219-.222l0-1.13a.221.221,0,0,0-.221-.221.445.445,0,0,0-.159.03,3.854,3.854,0,0,1,.081-.417.337.337,0,0,0-.131-.362,2.393,2.393,0,0,0-1.354-.416l-1.719,0a.594.594,0,0,1-.273-.065l-1.163-.726a15.157,15.157,0,0,0-4.669-1.939l-.267-.058a17.329,17.329,0,0,0-3.027-.354l-3.091.009a17.913,17.913,0,0,0-8.884,2.384l-3.234,1.86-6.542,1.117a6.6,6.6,0,0,0-2.828,1.209l1.528-.175a.191.191,0,0,1,.167.315l-.662.771a2.918,2.918,0,0,1-1.792.983l-.183.026a2.344,2.344,0,0,0,.079.553l.433,1.593-.062.355a.544.544,0,0,0,.508.638l2.971.153a.339.339,0,0,0,.355-.369c-.03-.316-.066-.636-.078-.98a3.425,3.425,0,0,1,3.4-3.571,3.375,3.375,0,0,1,3.353,3.366c0,.43,0,.808-.03,1.2a.335.335,0,0,0,.338.359l16.471-.043a.337.337,0,0,0,.333-.387,7.687,7.687,0,0,1-.078-1.055,3.441,3.441,0,0,1,3.342-3.5,3.376,3.376,0,0,1,3.41,3.366c0,.1,0,.2-.013.3a.338.338,0,0,0,.4.355l.444-.088a2.246,2.246,0,0,0,1.322-.566,2.2,2.2,0,0,0,.417-.512l.775,0a.564.564,0,0,0,.563-.566A.162.162,0,0,0,334.969,727.993Zm-16.131-7.935-.661,2.671a.672.672,0,0,1-.616.511l-8.431.476a.19.19,0,0,1-.2-.224h0a.641.641,0,0,1,.273-.414l.359-.241a18.413,18.413,0,0,1,7.752-2.945l1.222-.167A.271.271,0,0,1,318.838,720.058Zm8.4,2.565a1.9,1.9,0,0,1-1.219.446l-6.746.019a.221.221,0,0,1-.218-.253l.392-2.639a.506.506,0,0,1,.508-.431l1.688.027a9.3,9.3,0,0,1,4.483,1.232l.524.3a1.8,1.8,0,0,1,.7.73A.463.463,0,0,1,327.241,722.623Z" transform="translate(-296.481 -719.068)" fill="#f4b919"/>
      <path id="Path_84" data-name="Path 84" d="M298.292,724.475l.525-.61a.152.152,0,0,0-.133-.251l-1.518.175a2.328,2.328,0,0,0-.684,1.522l.388-.056A2.308,2.308,0,0,0,298.292,724.475Z" transform="translate(-296.48 -717.055)" fill="#f4b919"/>
      <path id="Path_85" data-name="Path 85" d="M302.735,724a3.221,3.221,0,1,0,3.231,3.212A3.219,3.219,0,0,0,302.735,724Zm.016,5.729a2.507,2.507,0,1,1,2.5-2.514A2.509,2.509,0,0,1,302.751,729.732Z" transform="translate(-295.133 -716.882)" fill="#f4b919"/>
      <path id="Path_86" data-name="Path 86" d="M302.463,724.623a2.325,2.325,0,1,0,1.648.677A2.313,2.313,0,0,0,302.463,724.623Zm-2,2.335v0a2,2,0,0,1,.378-1.179.235.235,0,0,1,.38,0l.455.622a.348.348,0,0,1-.173.537l-.736.242A.232.232,0,0,1,300.461,726.958Zm1.392,1.9a2.031,2.031,0,0,1-1-.723.234.234,0,0,1,.115-.362l.732-.241a.349.349,0,0,1,.457.332l0,.771A.234.234,0,0,1,301.853,728.862Zm.332-2.841-.455-.622a.234.234,0,0,1,.117-.361,1.984,1.984,0,0,1,.618-.1,1.944,1.944,0,0,1,.618.1.233.233,0,0,1,.118.359l-.452.625A.348.348,0,0,1,302.185,726.021Zm1.91,2.11a2.033,2.033,0,0,1-1,.729.234.234,0,0,1-.3-.222l0-.772a.35.35,0,0,1,.456-.333l.733.237A.235.235,0,0,1,304.1,728.131Zm.384-1.183a.23.23,0,0,1-.3.218l-.737-.237a.349.349,0,0,1-.176-.537l.452-.625a.234.234,0,0,1,.378,0,2,2,0,0,1,.385,1.177Z" transform="translate(-294.859 -716.607)" fill="#f4b919"/>
      <path id="Path_87" data-name="Path 87" d="M319.253,723.959a3.221,3.221,0,1,0,3.229,3.212A3.22,3.22,0,0,0,319.253,723.959Zm.014,5.729a2.507,2.507,0,1,1,2.5-2.514A2.509,2.509,0,0,1,319.268,729.688Z" transform="translate(-287.817 -716.901)" fill="#f4b919"/>
      <path id="Path_88" data-name="Path 88" d="M318.98,724.579a2.325,2.325,0,1,0,1.648.677A2.31,2.31,0,0,0,318.98,724.579Zm-2,2.335h0a2,2,0,0,1,.378-1.18.235.235,0,0,1,.379,0l.455.622a.348.348,0,0,1-.173.537l-.736.242A.231.231,0,0,1,316.977,726.914Zm1.392,1.9a2.03,2.03,0,0,1-1-.723.234.234,0,0,1,.115-.362l.732-.241a.349.349,0,0,1,.457.332l0,.771A.234.234,0,0,1,318.37,728.819Zm.332-2.841-.455-.622a.234.234,0,0,1,.117-.361,2.021,2.021,0,0,1,1.235,0,.235.235,0,0,1,.12.359l-.452.625A.349.349,0,0,1,318.7,725.977Zm1.91,2.11a2.032,2.032,0,0,1-1,.729.233.233,0,0,1-.3-.222l0-.772a.348.348,0,0,1,.456-.332l.733.235A.235.235,0,0,1,320.612,728.087ZM321,726.9a.23.23,0,0,1-.3.218l-.737-.237a.35.35,0,0,1-.176-.537l.452-.625a.234.234,0,0,1,.378,0A2,2,0,0,1,321,726.9Z" transform="translate(-287.542 -716.627)" fill="#f4b919"/>
    </g>
    <g id="Group_644" data-name="Group 644" transform="translate(307.857 736.125)">
      <path id="Path_89" data-name="Path 89" d="M308.006,734.444h10.818a3.464,3.464,0,0,0,6.1.472.133.133,0,0,0-.111-.206H322.09a.787.787,0,0,1-.75-.55,3.6,3.6,0,0,1,0-2.2.786.786,0,0,1,.75-.547h2.726a.133.133,0,0,0,.111-.206,3.465,3.465,0,0,0-6.105.47H308.008a3.465,3.465,0,0,0-6.105-.47.134.134,0,0,0,.113.206h2.726a.786.786,0,0,1,.749.547,3.581,3.581,0,0,1,0,2.2.787.787,0,0,1-.75.55h-2.726a.134.134,0,0,0-.113.206,3.465,3.465,0,0,0,6.1-.472Z" transform="translate(-301.881 -729.598)" fill="#f4b919"/>
    </g>
  </g>
</svg>
